<?xml version="1.0" encoding="UTF-8" standalone="no"?>
<!-- Generator: Adobe Adobe Illustrator 24.2.0, SVG Export Plug-In . SVG Version: 6.00 Build 0)  -->

<svg
   version="1.1"
   x="0px"
   y="0px"
   viewBox="0 0 2220.3188 375.24005"
   xml:space="preserve"
   id="svg12"
   sodipodi:docname="dt_logo-main.svg"
   inkscape:version="1.4 (e7c3feb100, 2024-10-09)"
   width="2220.3188"
   height="375.24005"
   inkscape:export-filename="dtlogo.svg"
   inkscape:export-xdpi="96"
   inkscape:export-ydpi="96"
   xmlns:inkscape="http://www.inkscape.org/namespaces/inkscape"
   xmlns:sodipodi="http://sodipodi.sourceforge.net/DTD/sodipodi-0.dtd"
   xmlns="http://www.w3.org/2000/svg"
   xmlns:svg="http://www.w3.org/2000/svg"><defs
   id="defs12"><rect
     x="801.01697"
     y="8.6440678"
     width="2933.2205"
     height="0"
     id="rect1" /></defs><sodipodi:namedview
   id="namedview12"
   pagecolor="#ffffff"
   bordercolor="#000000"
   borderopacity="0.25"
   inkscape:showpageshadow="2"
   inkscape:pageopacity="0.0"
   inkscape:pagecheckerboard="0"
   inkscape:deskcolor="#d1d1d1"
   inkscape:zoom="0.88"
   inkscape:cx="597.72727"
   inkscape:cy="331.81818"
   inkscape:window-width="2136"
   inkscape:window-height="1266"
   inkscape:window-x="26"
   inkscape:window-y="23"
   inkscape:window-maximized="0"
   inkscape:current-layer="svg12"><inkscape:page
     x="0"
     y="0"
     width="2220.3188"
     height="375.24005"
     id="page2"
     margin="0"
     bleed="0" /></sodipodi:namedview>
<style
   type="text/css"
   id="style1">
	.st0{fill:#FFFFFF;}
	.st1{fill:#FF8800;}
	.st2{display:none;}
	.st3{display:inline;}
	.st4{fill:#023047;}
	.st5{fill:#20272C;}
	.st6{fill:#FFB703;}
	.st7{fill:#054B6E;}
</style>




<g
   id="Layer_1_copy_2"
   transform="matrix(0.79662643,0,0,0.79964811,-229.5718,-101.95513)"
   inkscape:export-filename="../../Github/dt-staging.github.io/static/images/logos/dt_logo.svg"
   inkscape:export-xdpi="96"
   inkscape:export-ydpi="96">
	<g
   id="g12">
		<g
   id="g4">
			<g
   id="g3">
				<g
   id="g2">
					<path
   class="st7"
   d="m 520.85,358.06 c -0.01,0 -0.01,0 0,0 -0.01,0 -0.01,0 -0.01,0.01 0,-0.04 0.01,0.15 0.01,-0.01 z"
   id="path1" />
					<path
   class="st7"
   d="m 623.57,190.08 c -3.29,-21.02 -8.62,-42.29 -21.24,-59.79 -1.63,-2.33 -3.22,-2.17 -5.18,-2.17 -35.13,0 -59.63,-0.12 -79.1,-0.46 -0.16,-0.05 -0.31,-0.1 -0.47,-0.16 -22.22,0.38 -75,0.61 -111.76,0.61 -8.65,-0.65 -17.12,24.52 -19.78,31.77 -17.24,48.72 -2.66,100.97 31.37,138.53 19.45,22.25 44.11,39.17 65.21,59.68 0,-0.01 0,-0.02 0,-0.05 2.38,-4.67 17.96,-17.91 14.91,-21.42 C 444.94,286.72 380.9,232.56 411.35,151.66 l 97.99,-0.31 v -0.01 l 82.31,0.33 c 18,43.67 1.66,95.88 -29.52,128.93 -18.09,19.3 -37.32,37.44 -56.1,56.03 -3.01,3.54 12.42,16.7 14.81,21.42 53.08,-46.69 109.91,-88.6 102.73,-167.97 z"
   id="path2"
   style="fill:#076492;fill-opacity:1" />
				</g>
			</g>
		</g>
		<path
   class="st6"
   d="m 589.57,211.95 c -1.9,6.71 -3.29,13.6 -5.8,20.1 -9.47,24.49 -26.49,44.1 -45.89,62.05 -10.87,10.06 -21.88,19.97 -33.03,30.12 -0.5,0.19 -0.8,0.22 -1.33,0.19 -19.58,-17.49 -39.45,-34.44 -58.13,-52.5 -13.59,-13.15 -24.02,-28.68 -30.32,-46.92 6.7,-8.86 15.69,-14.01 25.82,-17.41 18.07,-6.07 36.5,-5.9 54.74,-1.24 13.3,3.39 26.22,8.08 39.37,12.01 11.04,3.29 22.3,4.51 33.83,2.55 7.74,-1.33 14.31,-4.97 20.74,-8.95 z"
   id="path4" />
		<g
   id="g7">
			<g
   id="g6">
				<g
   id="g5">
					<path
   class="st6"
   d="m 539.16,468.79 c -5.69,9.98 -14.99,20.86 -26,25.62 -12.37,5.35 -26.38,6.41 -40.43,-7.62 -15.4,-15.37 -19.88,-33.97 -17.55,-54.2 3.18,-27.7 18.25,-49.78 39.03,-68.96 7.74,-7.14 7.95,-7.26 15.28,0.54 17.04,18.13 30.23,38.16 34.02,62.52 2.2,14.14 0.48,28.98 -4.03,41.51"
   id="path5" />
				</g>
			</g>
		</g>
		<path
   class="st7"
   d="m 634.68,420.27 c 19.21,-3.06 38.16,2.48 57.07,4.91 6.15,0.79 12.3,0.63 18.7,0.91 -0.45,1.42 -0.85,3.18 -1.53,4.74 -8.57,19.95 -18.18,38.9 -33.41,52.59 -9.15,8.23 -19.16,14.13 -30.8,16.97 -14.13,3.45 -28.19,2.96 -42.73,-1.36 -12.6,-3.74 -25.35,-6.38 -37.91,-9.48 6.86,-12.17 13.36,-25.39 21.22,-37.26 12.18,-18.38 29.28,-27.97 49.39,-32.02 z"
   id="path7"
   style="fill:#076492;fill-opacity:1" />
		<path
   class="st7"
   d="m 386.57,430.39 c 16.07,11.83 26.13,28.9 38.27,43.98 3.94,4.9 8.54,9.21 13.01,13.97 -1.29,0.57 -2.77,1.39 -4.33,1.9 -19.76,6.46 -39.6,11.53 -59.97,9.27 -12.24,-1.36 -23.54,-4.8 -33.94,-11.35 -12.63,-7.94 -22.55,-18.32 -30.22,-31.46 -6.65,-11.39 -14.15,-22.19 -21.21,-33.14 13.25,-2.77 26.93,-6.46 40.71,-8.32 21.32,-2.9 40.28,3.29 57.68,15.15 z"
   id="path8"
   style="fill:#076492;fill-opacity:1" />
		<path
   class="st7"
   d="m 464.66,350.18 c 0.29,-0.12 0.23,-0.08 0.19,-0.09 4.28,3.89 8.66,7.73 12.79,11.81 0.37,0.37 -0.57,2.57 -1.35,3.57 -7.49,9.57 -15.83,18.57 -22.46,28.7 -9.11,13.94 -11.83,29.89 -10.19,46.44 0.43,4.36 2.06,8.61 2.43,13.38 -0.79,-1.14 -1.68,-2.22 -2.37,-3.41 -9.38,-16.15 -9.89,-33.2 -5.46,-50.92 4.69,-18.66 14.23,-34.62 26.42,-49.48 z"
   id="path9"
   style="fill:#076492;fill-opacity:1" />
		<path
   class="st7"
   d="m 538.01,349.91 c -0.28,-0.13 -0.22,-0.09 -0.19,-0.1 -4.3,3.75 -12.86,11.39 -12.86,11.39 0,0 -0.73,0.84 1.19,3.61 5.75,8.25 14.81,19.08 20.92,29.43 8.41,14.23 10.53,30.26 8.38,46.75 -0.57,4.35 -2.29,8.54 -2.81,13.29 0.81,-1.11 1.71,-2.16 2.42,-3.33 9.68,-15.83 10.75,-32.86 7.02,-50.71 -3.92,-18.82 -12.69,-35.08 -24.07,-50.33 z"
   id="path10"
   style="fill:#076492;fill-opacity:1" />
		<path
   class="st7"
   d="m 420.88,427.6 c -0.01,-0.01 -0.02,-0.01 -0.03,-0.02 -8.56,-8.73 -18.4,-15.78 -29.33,-21.51 -6.08,-3.19 -11.89,-6.72 -17.17,-11.07 -9.38,-7.73 -15.91,-17.21 -19.73,-28.35 -3.52,-10.26 -4.73,-20.81 -4.84,-31.47 -0.03,-2.5 0.05,-4.99 0.14,-7.49 0.01,-0.34 0.33,-0.67 0.51,-1 0.48,0.35 1.05,0.63 1.43,1.06 4.24,4.73 9.57,8.04 15.17,11.03 5.35,2.86 10.71,5.7 16,8.68 6.58,3.72 12.15,8.58 17.08,14.58 0.99,1.25 1.8,2.22 2.61,3.19 8.42,12.51 11.74,27.35 13.98,41.63 1.11,7.1 3.36,14.07 4.97,21.34 -0.36,-0.27 -0.36,-0.33 -0.79,-0.6 z"
   id="path11"
   style="fill:#076492;fill-opacity:1" />
		<path
   class="st7"
   d="m 578.23,422.84 c 0,-0.01 0.01,-0.02 0.01,-0.03 5.66,-10.86 9.34,-22.42 11.44,-34.64 1.17,-6.8 2.74,-13.43 5.26,-19.82 4.47,-11.34 11.46,-20.48 20.85,-27.53 8.65,-6.5 18.28,-10.87 28.34,-14.22 2.36,-0.79 4.75,-1.47 7.14,-2.15 0.33,-0.09 0.73,0.12 1.1,0.19 -0.18,0.57 -0.28,1.19 -0.57,1.69 -3.19,5.5 -4.7,11.61 -5.83,17.89 -1.08,6 -2.14,12 -3.35,17.96 -1.51,7.44 -4.43,14.25 -8.61,20.8 -0.88,1.33 -1.55,2.4 -2.23,3.47 -9.29,11.88 -22.33,19.58 -35.18,26.06 -6.39,3.23 -12.3,7.51 -18.7,11.26 0.15,-0.42 0.21,-0.44 0.33,-0.93 z"
   id="path12"
   style="fill:#076392;fill-opacity:1" />
	</g>
</g>

<text
   xml:space="preserve"
   id="text1"
   style="font-size:602.223px;line-height:640.158px;font-family:'Imperial Script';-inkscape-font-specification:'Imperial Script';text-align:center;letter-spacing:-39.3334px;writing-mode:lr-tb;direction:ltr;white-space:pre;shape-inside:url(#rect1);fill:#333333;fill-opacity:1;stroke:#ff9b00;stroke-width:2;stroke-dasharray:none"
   transform="matrix(0.7040582,0,0,0.7040582,323.84792,298.92004)"
   inkscape:export-filename="../../Github/dt-staging.github.io/static/images/logos/dt_logo.svg"
   inkscape:export-xdpi="96"
   inkscape:export-ydpi="96"><tspan
     x="0"
     y="0"
     id="tspan2"><tspan
       style="font-weight:bold;font-family:'Nunito Sans';-inkscape-font-specification:'Nunito Sans Bold';stroke:none"
       id="tspan1">DayTempo</tspan></tspan></text></svg>
