<?xml version="1.0" encoding="UTF-8" standalone="no"?>
<!-- Created with Inkscape (http://www.inkscape.org/) -->

<svg
   width="250"
   height="91.180878"
   viewBox="0 0 50 18.236176"
   version="1.1"
   id="svg1"
   xml:space="preserve"
   xmlns:xlink="http://www.w3.org/1999/xlink"
   xmlns="http://www.w3.org/2000/svg"
   xmlns:svg="http://www.w3.org/2000/svg"><defs
     id="defs1"><linearGradient
       id="linearGradient18"><stop
         style="stop-color:#e9eeed;stop-opacity:1;"
         offset="0"
         id="stop18" /><stop
         style="stop-color:#c4c5d9;stop-opacity:0;"
         offset="1"
         id="stop19" /></linearGradient><rect
       x="227.27274"
       y="565.65656"
       width="380.80807"
       height="48.484848"
       id="rect14" /><linearGradient
       xlink:href="#linearGradient18"
       id="linearGradient19"
       x1="112.51472"
       y1="160.88785"
       x2="112.53997"
       y2="176.65598"
       gradientUnits="userSpaceOnUse" /><style
       id="style1182"
       type="text/css">.fil4{fill:#fefefe}.fil3{fill:#00ae42}.fil5{fill:red}.fil0{fill:#00ae42}.fil0,.fil1,.fil2{fill-rule:nonzero}.fil1{fill:red}.fil2{fill:#fff}</style></defs><g
     id="dt-coach-notify"
     transform="matrix(1.0445791,0,0,1.0445791,-6.649026,-22.291948)"
     style="display:inline"><g
       id="g21"
       transform="matrix(0.28156571,0,0,0.28156571,-1.3102418,-11.468437)"><rect
         style="fill:url(#linearGradient19);fill-opacity:1;stroke:none;stroke-width:0.264583;stroke-dasharray:none;stroke-opacity:1"
         id="rect15"
         width="170"
         height="62.002998"
         x="27.260101"
         y="116.52357"
         rx="5"
         ry="5" /><rect
         style="fill:#2a2a2a;fill-opacity:1;stroke-width:0.564942"
         id="rect1"
         width="150"
         height="35"
         x="36.990974"
         y="130.99998"
         rx="10.911417"
         ry="10.445791" /><g
         id="g4"
         transform="matrix(0.91666667,0,0,0.91666667,15.943607,11.875)"
         style="fill:#3c3c3c;fill-opacity:1"><path
           style="fill:#3c3c3c;fill-opacity:1;stroke:none;stroke-width:0.130021;stroke-opacity:1"
           id="path2"
           d="m 177.92328,148.5 a 6,6 0 0 1 -5.8701,5.99859 6,6 0 0 1 -6.12428,-5.73885 6,6 0 0 1 5.60492,-6.24709 6,6 0 0 1 6.36697,5.46835" /><path
           style="fill:#3c3c3c;fill-opacity:1;stroke:#ffffff;stroke-width:0.482231;stroke-opacity:1"
           d="m 175.43847,146.65945 -3.51519,3.51092 -3.51519,-3.51092"
           id="path3" /></g><ellipse
         style="fill:none;fill-opacity:1;stroke:#ffffff;stroke-width:1.93647;stroke-dasharray:none;stroke-opacity:1"
         id="path4"
         cx="49.306271"
         cy="147.94167"
         rx="5.0317664"
         ry="5.0317655" /><text
         xml:space="preserve"
         style="font-weight:500;font-size:8.46667px;line-height:9.00002px;font-family:Roboto;-inkscape-font-specification:'Roboto Medium';text-align:start;letter-spacing:0px;writing-mode:lr-tb;direction:ltr;text-anchor:start;fill:#e6e6e6;fill-opacity:1;stroke:none;stroke-width:2.11667;stroke-dasharray:none;stroke-opacity:1"
         x="59.545303"
         y="145.38185"
         id="text4"><tspan
           id="tspan4"
           style="font-style:normal;font-variant:normal;font-weight:500;font-stretch:normal;font-size:8.46667px;line-height:9.00002px;font-family:Nunito;-inkscape-font-specification:'Nunito Medium';text-align:start;letter-spacing:0px;text-anchor:start;fill:#cccccc;fill-opacity:1;stroke:none;stroke-width:2.11667"
           x="59.545303"
           y="145.38185"><tspan
   style="font-style:normal;font-variant:normal;font-weight:600;font-stretch:normal;font-family:Nunito;-inkscape-font-specification:'Nunito Semi-Bold'"
   id="tspan13">DayTempo</tspan> <tspan
   style="font-style:normal;font-variant:normal;font-weight:300;font-stretch:normal;font-size:6.35px;font-family:Nunito;-inkscape-font-specification:'Nunito Light';fill:#cccccc"
   id="tspan5"><tspan
     style="font-size:4.23333px;fill:#cccccc"
     id="tspan7">•</tspan><tspan
     style="font-size:4.93889px;fill:#cccccc"
     id="tspan8"> </tspan></tspan><tspan
   id="tspan11"
   style="font-size:4.93889px;fill:#cccccc">now</tspan> </tspan></text><g
         style="fill:#cccccc"
         id="g13"
         transform="matrix(0.22916667,0,0,0.22916667,119.76273,141.23405)"><path
           d="M 0,0 H 24 V 24 H 0 Z"
           fill="none"
           id="path1" /><path
           d="M 7.58,4.08 6.15,2.65 C 3.75,4.48 2.17,7.3 2.03,10.5 h 2 C 4.18,7.85 5.54,5.53 7.58,4.08 Z m 12.39,6.42 h 2 C 21.82,7.3 20.24,4.48 17.85,2.65 l -1.42,1.43 c 2.02,1.45 3.39,3.77 3.54,6.42 z M 18,11 C 18,7.93 16.36,5.36 13.5,4.68 V 4 C 13.5,3.17 12.83,2.5 12,2.5 11.17,2.5 10.5,3.17 10.5,4 V 4.68 C 7.63,5.36 6,7.92 6,11 v 5 l -2,2 v 1 h 16 v -1 l -2,-2 z m -6,11 c 0.14,0 0.27,-0.01 0.4,-0.04 0.65,-0.14 1.18,-0.58 1.44,-1.18 0.1,-0.24 0.15,-0.5 0.15,-0.78 h -4 c 0.01,1.1 0.9,2 2.01,2 z"
           id="path2-0" /></g><text
         xml:space="preserve"
         transform="matrix(0.26458333,0,0,0.26458333,-0.47175033,-2.677904)"
         id="text14"
         style="font-style:normal;font-variant:normal;font-weight:600;font-stretch:normal;font-size:26.6667px;line-height:48.594px;font-family:Nunito;-inkscape-font-specification:'Nunito Semi-Bold';text-align:start;letter-spacing:0px;writing-mode:lr-tb;direction:ltr;white-space:pre;shape-inside:url(#rect14);display:inline;fill:#b3b3b3;fill-opacity:1;stroke:#b3b3b3;stroke-width:0;stroke-dasharray:none;stroke-opacity:1"><tspan
           x="227.27344"
           y="596.38532"
           id="tspan1">Drink a glass of water</tspan></text><text
         xml:space="preserve"
         style="font-weight:500;font-size:8.46667px;line-height:9.00002px;font-family:Roboto;-inkscape-font-specification:'Roboto Medium';text-align:start;letter-spacing:0px;writing-mode:lr-tb;direction:ltr;text-anchor:start;fill:#626463;fill-opacity:1;stroke:none;stroke-width:2.11667;stroke-dasharray:none;stroke-opacity:1"
         x="47.593529"
         y="124.03514"
         id="text4-3"><tspan
           id="tspan4-7"
           style="font-style:normal;font-variant:normal;font-weight:500;font-stretch:normal;font-size:8.46667px;line-height:9.00002px;font-family:Nunito;-inkscape-font-specification:'Nunito Medium';text-align:start;letter-spacing:0px;text-anchor:start;fill:#626463;fill-opacity:1;stroke:none;stroke-width:2.11667"
           x="47.593529"
           y="124.03514"><tspan
   style="font-style:normal;font-variant:normal;font-weight:500;font-stretch:normal;font-size:4.93889px;font-family:Nunito;-inkscape-font-specification:'Nunito Medium';fill:#626463;fill-opacity:1"
   id="tspan13-4">DayTempo</tspan> </tspan></text><circle
         style="fill:#626463;fill-opacity:1;stroke:none;stroke-width:4.4e-08;stroke-dasharray:none;stroke-opacity:1"
         id="path17"
         cx="40.720036"
         cy="122.75597"
         r="2" /><g
         id="g18"
         transform="translate(0,1.5875)"><g
           style="fill:#cccccc;stroke:none;stroke-opacity:1"
           id="g16"
           transform="matrix(0.26458333,0,0,0.26458333,179.79373,117.99347)"><path
             d="M 0,0 H 24 V 24 H 0 Z"
             fill="none"
             id="path1-5"
             style="stroke:none;stroke-opacity:1" /><path
             d="M 15.67,4 H 14 V 2 H 10 V 4 H 8.33 C 7.6,4 7,4.6 7,5.33 V 20.66 C 7,21.4 7.6,22 8.33,22 h 7.33 C 16.4,22 17,21.4 17,20.67 V 5.33 C 17,4.6 16.4,4 15.67,4 Z"
             id="path2-5"
             style="fill:#626463;fill-opacity:1;stroke:none;stroke-opacity:1" /></g><g
           style="fill:#cccccc"
           id="g17"
           transform="matrix(0.26458333,0,0,0.26458333,171.77605,117.99347)"><path
             d="M 0,0 H 24 V 24 H 0 Z"
             fill="none"
             id="path1-4" /><path
             d="M 2,22 H 22 V 2 Z"
             id="path2-7"
             style="fill:#626463;fill-opacity:1" /></g></g></g></g><style
     type="text/css"
     id="style1">
	.st0{fill:#000000;}
</style></svg>
